PathFileType	4	(X/Y/Z)	C:\Users\italobelli\Desktop\GitHub\PTbot_officialCBL\Personal_Results\ABD23_noisy1.trc
DataRate	CameraRate	NumFrames	NumMarkers	Units	OrigDataRate	OrigDataStartFrame	OrigNumFrames
105.444444	105.444444	29	9	m	105.444444	713	950
Frame#	Time		gu		centelbow		EpL		centpxt8		centijc7		ij		ts		aa		ai
			X1	Y1	Z1	X2	Y2	Z2	X3	Y3	Z3	X4	Y4	Z4	X5	Y5	Z5	X6	Y6	Z6	X7	Y7	Z7	X8	Y8	Z8	X9	Y9	Z9

713	6.7524	-0.098132	-0.0059825	0.16029	-0.12362	-0.24226	0.18694	-0.1236	-0.23433	0.21815	-0.046816	-0.15316	-0.008669	-0.046816	0.031938	-0.008669	0	0	0	-0.12848	0.029059	0.036451	-0.12801	0.02884	0.1557	-0.14325	-0.083381	0.041486
714	6.7619	-0.098201	-0.0059198	0.16027	-0.1238	-0.24222	0.18707	-0.12375	-0.23429	0.21828	-0.046816	-0.15316	-0.008669	-0.046816	0.031938	-0.008669	0	0	0	-0.12853	0.029088	0.036473	-0.12801	0.028901	0.15573	-0.14338	-0.08334	0.041543
715	6.7713	-0.098271	-0.0058584	0.16026	-0.12398	-0.24219	0.1872	-0.12389	-0.23426	0.21841	-0.046816	-0.15316	-0.008669	-0.046816	0.031938	-0.008669	0	0	0	-0.12859	0.029118	0.036496	-0.128	0.028961	0.15575	-0.1435	-0.083299	0.0416
716	6.7808	-0.09834	-0.0057984	0.16024	-0.12416	-0.24216	0.18733	-0.12404	-0.23423	0.21854	-0.046816	-0.15316	-0.008669	-0.046816	0.031938	-0.008669	0	0	0	-0.12864	0.029146	0.036519	-0.128	0.02902	0.15577	-0.14362	-0.08326	0.041656
717	6.7903	-0.098407	-0.0057401	0.16022	-0.12434	-0.24213	0.18745	-0.12417	-0.2342	0.21867	-0.046816	-0.15316	-0.008669	-0.046816	0.031938	-0.008669	0	0	0	-0.12869	0.029174	0.036541	-0.128	0.029078	0.15579	-0.14375	-0.08322	0.041711
718	6.7998	-0.098474	-0.0056835	0.1602	-0.12451	-0.2421	0.18758	-0.12431	-0.23417	0.2188	-0.046816	-0.15316	-0.008669	-0.046816	0.031938	-0.008669	0	0	0	-0.12875	0.029201	0.036563	-0.12799	0.029135	0.15582	-0.14387	-0.083182	0.041766
719	6.8093	-0.09854	-0.005629	0.16019	-0.12467	-0.24208	0.1877	-0.12444	-0.23415	0.21893	-0.046816	-0.15316	-0.008669	-0.046816	0.031938	-0.008669	0	0	0	-0.1288	0.029228	0.036584	-0.12799	0.029191	0.15584	-0.14399	-0.083145	0.041821
720	6.8188	-0.098604	-0.0055766	0.16017	-0.12483	-0.24206	0.18782	-0.12457	-0.23413	0.21905	-0.046816	-0.15316	-0.008669	-0.046816	0.031938	-0.008669	0	0	0	-0.12886	0.029253	0.036605	-0.12799	0.029245	0.15586	-0.14411	-0.083109	0.041875
721	6.8282	-0.098667	-0.0055266	0.16016	-0.12499	-0.24204	0.18794	-0.1247	-0.23411	0.21918	-0.046816	-0.15316	-0.008669	-0.046816	0.031938	-0.008669	0	0	0	-0.12891	0.029278	0.036626	-0.12799	0.029298	0.15588	-0.14422	-0.083074	0.041928
722	6.8377	-0.098727	-0.0054791	0.16014	-0.12515	-0.24203	0.18806	-0.12482	-0.2341	0.2193	-0.046816	-0.15316	-0.008669	-0.046816	0.031938	-0.008669	0	0	0	-0.12896	0.029301	0.036647	-0.12799	0.029349	0.1559	-0.14434	-0.08304	0.041981
723	6.8472	-0.098786	-0.0054343	0.16013	-0.1253	-0.24202	0.18817	-0.12494	-0.23409	0.21942	-0.046816	-0.15316	-0.008669	-0.046816	0.031938	-0.008669	0	0	0	-0.12901	0.029323	0.036667	-0.12799	0.029398	0.15592	-0.14445	-0.083008	0.042032
724	6.8567	-0.098842	-0.0053925	0.16012	-0.12544	-0.24202	0.18828	-0.12506	-0.23409	0.21954	-0.046816	-0.15316	-0.008669	-0.046816	0.031938	-0.008669	0	0	0	-0.12907	0.029344	0.036687	-0.12799	0.029446	0.15594	-0.14456	-0.082977	0.042083
725	6.8662	-0.098896	-0.0053537	0.1601	-0.12558	-0.24202	0.18839	-0.12517	-0.23409	0.21965	-0.046816	-0.15316	-0.008669	-0.046816	0.031938	-0.008669	0	0	0	-0.12912	0.029364	0.036707	-0.128	0.029491	0.15596	-0.14466	-0.082948	0.042134
726	6.8757	-0.098947	-0.0053182	0.16009	-0.12572	-0.24202	0.1885	-0.12527	-0.2341	0.21976	-0.046816	-0.15316	-0.008669	-0.046816	0.031938	-0.008669	0	0	0	-0.12917	0.029382	0.036726	-0.128	0.029535	0.15598	-0.14476	-0.082921	0.042183
727	6.8851	-0.098995	-0.0052861	0.16008	-0.12585	-0.24203	0.1886	-0.12538	-0.23412	0.21986	-0.046816	-0.15316	-0.008669	-0.046816	0.031938	-0.008669	0	0	0	-0.12922	0.029399	0.036745	-0.128	0.029575	0.156	-0.14486	-0.082896	0.042231
728	6.8946	-0.099041	-0.0052577	0.16007	-0.12597	-0.24204	0.1887	-0.12548	-0.23414	0.21997	-0.046816	-0.15316	-0.008669	-0.046816	0.031938	-0.008669	0	0	0	-0.12926	0.029415	0.036764	-0.12801	0.029614	0.15602	-0.14496	-0.082872	0.042278
729	6.9041	-0.099082	-0.0052331	0.16006	-0.12609	-0.24206	0.18879	-0.12557	-0.23417	0.22006	-0.046816	-0.15316	-0.008669	-0.046816	0.031938	-0.008669	0	0	0	-0.12931	0.029429	0.036782	-0.12801	0.02965	0.15604	-0.14505	-0.082851	0.042325
730	6.9136	-0.099121	-0.0052125	0.16005	-0.1262	-0.24209	0.18888	-0.12566	-0.2342	0.22016	-0.046816	-0.15316	-0.008669	-0.046816	0.031938	-0.008669	0	0	0	-0.12936	0.029441	0.0368	-0.12802	0.029683	0.15606	-0.14514	-0.082832	0.04237
731	6.9231	-0.099155	-0.0051961	0.16004	-0.12631	-0.24212	0.18897	-0.12574	-0.23424	0.22024	-0.046816	-0.15316	-0.008669	-0.046816	0.031938	-0.008669	0	0	0	-0.1294	0.029451	0.036817	-0.12803	0.029713	0.15607	-0.14522	-0.082815	0.042414
732	6.9326	-0.099186	-0.005184	0.16004	-0.12641	-0.24215	0.18905	-0.12582	-0.23429	0.22033	-0.046816	-0.15316	-0.008669	-0.046816	0.031938	-0.008669	0	0	0	-0.12945	0.02946	0.036834	-0.12803	0.02974	0.15609	-0.1453	-0.0828	0.042457
733	6.942	-0.099212	-0.0051765	0.16003	-0.1265	-0.2422	0.18912	-0.1259	-0.23435	0.2204	-0.046816	-0.15316	-0.008669	-0.046816	0.031938	-0.008669	0	0	0	-0.12949	0.029466	0.036851	-0.12804	0.029764	0.15611	-0.14537	-0.082788	0.042498
734	6.9515	-0.099234	-0.0051737	0.16003	-0.12659	-0.24225	0.18919	-0.12597	-0.23441	0.22047	-0.046816	-0.15316	-0.008669	-0.046816	0.031938	-0.008669	0	0	0	-0.12953	0.029471	0.036867	-0.12805	0.029785	0.15612	-0.14544	-0.082778	0.042539
735	6.961	-0.099252	-0.0051758	0.16002	-0.12668	-0.2423	0.18925	-0.12603	-0.23448	0.22054	-0.046816	-0.15316	-0.008669	-0.046816	0.031938	-0.008669	0	0	0	-0.12957	0.029473	0.036883	-0.12806	0.029802	0.15614	-0.14551	-0.082771	0.042578
736	6.9705	-0.099264	-0.005183	0.16002	-0.12675	-0.24237	0.18931	-0.12609	-0.23456	0.22059	-0.046816	-0.15316	-0.008669	-0.046816	0.031938	-0.008669	0	0	0	-0.12961	0.029474	0.036898	-0.12807	0.029816	0.15616	-0.14556	-0.082767	0.042615
737	6.98	-0.099272	-0.0051955	0.16002	-0.12682	-0.24244	0.18936	-0.12615	-0.23465	0.22065	-0.046816	-0.15316	-0.008669	-0.046816	0.031938	-0.008669	0	0	0	-0.12964	0.029472	0.036913	-0.12808	0.029826	0.15617	-0.14562	-0.082766	0.042651
738	6.9895	-0.099275	-0.0052134	0.16002	-0.12688	-0.24251	0.1894	-0.12619	-0.23475	0.22069	-0.046816	-0.15316	-0.008669	-0.046816	0.031938	-0.008669	0	0	0	-0.12967	0.029468	0.036927	-0.1281	0.029833	0.15618	-0.14566	-0.082767	0.042686
739	6.9989	-0.099272	-0.005237	0.16002	-0.12693	-0.2426	0.18944	-0.12624	-0.23486	0.22073	-0.046816	-0.15316	-0.008669	-0.046816	0.031938	-0.008669	0	0	0	-0.12971	0.029461	0.036941	-0.12811	0.029835	0.1562	-0.14571	-0.082772	0.042719
740	7.0084	-0.099264	-0.0052653	0.16002	-0.12698	-0.2427	0.18947	-0.12627	-0.23498	0.22076	-0.046816	-0.15316	-0.008669	-0.046816	0.031938	-0.008669	0	0	0	-0.12974	0.029452	0.036955	-0.12812	0.029834	0.15621	-0.14574	-0.08278	0.042751
741	7.0179	-0.099254	-0.0052966	0.16002	-0.12703	-0.2428	0.1895	-0.12631	-0.2351	0.22079	-0.046816	-0.15316	-0.008669	-0.046816	0.031938	-0.008669	0	0	0	-0.12977	0.029439	0.036968	-0.12814	0.029831	0.15622	-0.14578	-0.082792	0.042783
